<?xml version="1.0" standalone="no"?>
<!DOCTYPE svg PUBLIC "-//W3C//DTD SVG 20010904//EN"
 "http://www.w3.org/TR/2001/REC-SVG-20010904/DTD/svg10.dtd">
<svg version="1.0" xmlns="http://www.w3.org/2000/svg"
 width="512.000000pt" height="512.000000pt" viewBox="0 0 512.000000 512.000000"
 preserveAspectRatio="xMidYMid meet">

<g transform="translate(0.000000,512.000000) scale(0.100000,-0.100000)"
fill="#000000" stroke="none">
<path d="M4373 5030 c-39 -16 -567 -331 -588 -351 -18 -17 -20 -35 -23 -149
l-4 -130 -231 0 -232 0 80 -80 80 -80 152 0 153 0 0 -117 c0 -93 4 -125 18
-151 14 -28 65 -61 306 -198 187 -106 298 -164 317 -164 30 0 576 303 614 341
19 19 20 35 23 359 l3 339 -28 29 c-28 29 -560 345 -598 355 -11 3 -30 2 -42
-3z m210 -267 c100 -58 188 -112 195 -118 11 -10 -24 -34 -182 -124 l-196
-112 -196 111 c-128 74 -192 116 -186 122 9 9 372 226 380 227 2 1 85 -47 185
-106z m-457 -374 l194 -110 0 -230 c0 -126 -3 -229 -7 -229 -5 1 -93 50 -198
109 l-190 109 -3 231 c-1 127 1 231 4 231 4 0 94 -50 200 -111z m754 -118 l0
-230 -194 -110 c-106 -61 -196 -111 -200 -111 -3 0 -6 103 -6 229 l0 228 193
111 c105 61 195 111 200 111 4 1 7 -102 7 -228z"/>
<path d="M693 1510 c-54 -22 -561 -326 -586 -351 l-27 -29 0 -330 c0 -216 4
-337 11 -353 8 -17 100 -75 305 -192 162 -92 305 -170 317 -172 24 -5 572 300
617 344 24 22 25 30 28 158 l4 134 374 3 373 3 23 23 c21 21 23 33 26 160 l3
137 -80 80 -81 80 0 -163 0 -162 -319 0 -319 0 -4 130 c-3 114 -5 132 -23 149
-24 23 -571 346 -600 354 -11 3 -30 2 -42 -3z m210 -266 c100 -59 188 -112
195 -119 11 -10 -23 -33 -181 -124 l-196 -112 -196 112 c-108 62 -192 116
-188 120 8 7 375 228 381 229 2 0 85 -48 185 -106z m-455 -378 l192 -110 0
-229 c0 -126 -4 -227 -8 -225 -5 2 -95 52 -200 112 l-192 110 0 229 c0 126 4
227 8 225 5 -1 95 -52 200 -112z m752 -115 l0 -229 -192 -108 c-106 -60 -196
-110 -200 -112 -4 -2 -8 99 -8 225 l0 229 193 111 c105 62 195 112 200 113 4
0 7 -103 7 -229z"/>
</g>
</svg>
