<?xml version="1.0" standalone="no"?>
<!DOCTYPE svg PUBLIC "-//W3C//DTD SVG 20010904//EN"
 "http://www.w3.org/TR/2001/REC-SVG-20010904/DTD/svg10.dtd">
<svg version="1.0" xmlns="http://www.w3.org/2000/svg"
 width="310.000000pt" height="310.000000pt" viewBox="0 0 310.000000 310.000000"
 preserveAspectRatio="xMidYMid meet">

<g transform="translate(0.000000,310.000000) scale(0.100000,-0.100000)"
fill="#000000" stroke="none">
<path d="M470 2796 c0 -2 8 -10 18 -17 15 -13 16 -12 3 4 -13 16 -21 21 -21
13z"/>
<path d="M363 2745 c-14 -10 -19 -22 -16 -35 5 -21 6 -21 17 2 9 17 20 22 42
21 27 -2 28 -1 10 12 -24 18 -27 18 -53 0z"/>
<path d="M2185 2744 c-96 -23 -161 -67 -287 -192 -65 -64 -118 -121 -118 -126
0 -5 55 45 123 111 139 135 206 176 320 195 194 32 393 -75 480 -259 27 -58
32 -82 36 -168 l5 -100 7 65 c14 129 -30 249 -127 346 -71 71 -140 110 -231
129 -83 18 -130 18 -208 -1z"/>
<path d="M512 2720 c-1 -14 -5 -36 -8 -50 -5 -19 -4 -22 5 -14 7 7 11 28 8 50
-2 22 -4 28 -5 14z"/>
<path d="M988 2709 c-11 -6 -18 -21 -17 -37 0 -26 1 -26 9 -4 12 28 36 38 55
22 10 -8 15 -9 15 -2 0 6 -9 16 -19 22 -23 12 -22 12 -43 -1z"/>
<path d="M1131 2672 c-2 -33 -26 -77 -56 -100 -24 -19 -25 -23 -23 -128 l2
-109 5 102 c6 94 8 103 32 122 33 25 52 70 46 107 -3 23 -4 24 -6 6z"/>
<path d="M445 2650 c-3 -5 -1 -10 4 -10 6 0 11 5 11 10 0 6 -2 10 -4 10 -3 0
-8 -4 -11 -10z"/>
<path d="M294 2628 c24 -37 79 -61 124 -53 l37 6 274 -275 c151 -151 278 -273
282 -270 5 3 6 11 3 19 -4 8 -10 13 -14 10 -17 -10 -23 18 -6 30 13 10 14 15
4 23 -7 6 -20 12 -28 14 -8 2 -19 8 -23 13 -5 6 -7 4 -4 -5 2 -8 10 -14 16
-13 6 2 11 -2 11 -8 0 -5 5 -7 10 -4 6 3 10 2 10 -4 0 -22 -20 -20 -49 5 -23
19 -30 32 -27 50 3 14 1 22 -5 19 -5 -4 -7 -11 -4 -16 4 -5 2 -9 -3 -9 -13 0
-33 25 -26 33 3 3 -4 8 -17 12 -12 4 -32 19 -45 34 -18 21 -20 29 -11 41 10
13 10 13 -3 3 -12 -9 -24 -3 -61 32 -26 24 -44 47 -40 50 3 4 2 5 -4 3 -5 -1
-64 50 -130 115 -112 109 -122 117 -151 112 -37 -6 -80 8 -113 38 l-24 22 17
-27z"/>
<path d="M891 2634 c0 -11 3 -14 6 -6 3 7 2 16 -1 19 -3 4 -6 -2 -5 -13z"/>
<path d="M908 2593 c7 -12 26 -32 43 -44 41 -29 26 -2 -20 37 -29 24 -32 25
-23 7z"/>
<path d="M1000 2581 c0 -6 5 -13 10 -16 6 -3 10 1 10 9 0 9 -4 16 -10 16 -5 0
-10 -4 -10 -9z"/>
<path d="M1451 2506 c-9 -11 -9 -16 1 -22 7 -4 10 -4 6 1 -4 4 -3 14 3 22 6 7
9 13 6 13 -2 0 -10 -6 -16 -14z"/>
<path d="M1535 2485 c-14 -13 -25 -34 -24 -47 1 -23 1 -23 10 2 5 14 19 31 31
39 20 12 45 -11 479 -445 435 -435 458 -459 455 -491 -2 -36 -18 -53 -51 -53
-12 0 -104 85 -245 225 -124 124 -230 222 -235 218 -4 -5 -5 -3 -2 3 6 10
-117 134 -133 134 -4 0 -10 10 -13 22 -4 12 -9 19 -13 16 -3 -4 -17 5 -30 19
-13 14 -24 21 -24 14 0 -21 4 -26 19 -23 9 2 12 -2 8 -12 -4 -10 0 -14 14 -11
20 4 26 -9 9 -20 -5 -3 -10 -1 -10 5 0 6 -4 9 -9 6 -13 -9 -54 41 -48 58 4 9
2 16 -3 16 -6 0 -10 -6 -10 -12 0 -7 -12 0 -26 15 -17 20 -23 36 -19 50 5 20
5 20 -5 4 -6 -9 -16 -15 -21 -12 -5 4 -7 11 -3 16 3 5 2 8 -3 7 -13 -5 -53 28
-45 37 4 5 1 5 -5 1 -8 -4 -13 -1 -13 9 0 9 -4 14 -9 11 -5 -3 -26 0 -47 7
-42 14 -149 4 -139 -14 4 -5 3 -9 -2 -9 -4 0 -23 -14 -40 -30 -18 -17 -36 -32
-40 -33 -5 -1 -7 -5 -5 -9 1 -5 -4 -8 -11 -8 -8 0 -20 -11 -27 -25 -7 -13 -17
-22 -22 -19 -4 3 -8 1 -8 -5 0 -15 -60 -71 -76 -71 -8 0 -14 -6 -14 -12 0 -9
-3 -8 -10 2 -10 16 5 31 25 24 6 -3 23 13 37 34 l26 39 -36 28 c-21 16 -31 22
-25 14 7 -9 10 -19 6 -22 -3 -4 -1 -7 6 -7 7 0 9 -4 6 -10 -3 -5 -1 -10 6 -10
8 0 8 -4 -1 -15 -13 -16 -35 -21 -26 -7 3 5 -2 9 -11 9 -12 0 -11 -5 7 -19 13
-10 20 -21 17 -25 -4 -3 -14 0 -24 8 -9 8 -14 9 -10 3 3 -6 -5 -17 -18 -24
-13 -7 -22 -18 -18 -24 3 -6 0 -6 -7 1 -11 10 -16 9 -26 -5 -11 -15 -13 -15
-23 11 -6 15 -13 27 -16 27 -3 0 1 -16 9 -35 13 -30 13 -35 1 -35 -8 0 -17 -5
-21 -12 -5 -8 -2 -9 12 -4 18 7 18 6 -1 -11 -11 -10 -31 -26 -45 -36 -13 -9
-18 -17 -11 -17 8 0 12 -2 9 -5 -8 -8 -66 24 -96 55 -18 17 -29 23 -29 14 0
-8 3 -14 7 -14 4 0 7 -7 7 -14 0 -11 -7 -9 -23 7 -13 12 -24 27 -24 32 0 6 5
3 10 -5 7 -12 9 -10 7 7 0 13 -7 25 -15 28 -7 2 -10 0 -7 -5 3 -6 -1 -7 -10
-4 -11 5 -13 10 -5 19 9 10 2 13 -29 11 -21 0 -37 2 -35 6 2 3 -25 8 -61 10
-61 3 -82 -3 -52 -15 6 -3 -2 -3 -19 0 -18 3 -35 0 -38 -6 -4 -6 -12 -9 -17
-5 -17 10 -41 -17 -29 -31 11 -14 -5 -33 -17 -21 -4 3 -1 6 6 6 7 0 10 4 7 8
-2 4 -29 7 -58 6 -75 -3 -75 -3 -58 -14 24 -16 5 -11 -26 6 -23 13 -25 15 -7
11 13 -3 26 -1 29 4 3 5 -4 9 -15 9 -12 0 -21 7 -21 15 0 8 5 15 11 15 5 0 7
-6 3 -12 -6 -10 -5 -10 8 -1 8 7 18 10 21 6 4 -3 7 3 7 14 0 32 26 48 55 35
23 -11 24 -10 12 8 -9 15 -21 19 -48 18 -33 -3 -36 -6 -34 -28 2 -14 1 -29 -2
-33 -8 -12 -34 14 -26 27 3 6 2 7 -3 3 -9 -9 -11 -13 -13 -49 -2 -22 -2 -23
-16 -4 -21 28 -19 1 2 -35 10 -16 36 -39 60 -50 56 -27 111 -14 149 36 l26 35
92 0 92 0 64 -65 c35 -36 67 -65 70 -65 3 0 6 9 7 20 1 11 -2 18 -6 16 -4 -3
-8 2 -8 11 0 13 4 12 18 -5 17 -21 16 -62 -2 -62 -5 0 -9 -7 -9 -15 0 -17
-235 -250 -253 -250 -23 0 -56 -65 -51 -101 14 -118 14 -112 -1 -84 l-14 25 0
-30 c-1 -16 8 -48 18 -70 20 -44 258 -288 272 -279 5 3 9 1 9 -4 0 -6 -7 -13
-16 -16 -9 -3 -14 -12 -11 -20 7 -17 -213 -236 -237 -236 -10 0 -39 19 -66 41
-58 49 -116 61 -171 36 -19 -8 -42 -17 -52 -21 -19 -6 -40 -49 -26 -54 5 -2 9
-17 9 -33 0 -18 -4 -28 -10 -24 -6 3 -10 -4 -10 -16 0 -23 46 -99 61 -99 4 0
-5 -13 -21 -28 -27 -27 -28 -33 -23 -93 3 -47 2 -60 -6 -49 -8 12 -11 7 -11
-21 0 -45 46 -119 92 -147 76 -47 184 -48 249 -1 l28 20 42 -28 c100 -66 223
-15 249 102 5 21 5 47 0 59 -8 19 -9 19 -9 -6 -1 -16 -5 -28 -11 -28 -13 0
-13 47 0 55 18 11 11 25 -35 74 l-44 47 124 124 124 124 126 -124 c69 -69 142
-134 162 -144 49 -27 154 -27 203 -2 19 10 101 84 182 164 l148 147 70 -70 71
-70 -3 -103 c-2 -56 1 -102 6 -102 5 0 1 -9 -9 -20 -22 -24 -40 -26 -31 -4 12
31 -16 1 -30 -32 -19 -46 -18 -81 6 -119 44 -71 150 -79 204 -14 29 34 38 102
11 79 -13 -10 -15 -9 -15 9 0 11 5 21 10 21 15 0 12 36 -4 49 -11 9 -15 9 -19
-1 -3 -9 -11 -7 -28 9 -13 13 -18 23 -12 23 7 0 10 7 7 15 -3 8 -11 13 -17 12
-17 -3 -22 194 -6 204 7 4 9 15 5 25 -6 16 -8 16 -16 4 -8 -12 -22 -3 -72 47
-68 68 -73 100 -5 37 35 -32 34 -30 -7 13 l-50 53 24 25 c13 14 28 25 34 25 7
0 138 -127 293 -283 156 -155 286 -281 291 -279 5 1 7 -11 4 -28 -5 -36 -10
-37 -22 -7 -8 19 -9 18 -9 -13 -1 -39 28 -93 57 -109 83 -44 174 -1 196 92 6
26 5 27 -14 17 -17 -9 -20 -8 -20 10 0 11 5 20 10 20 15 0 12 36 -4 49 -11 9
-15 9 -18 -1 -4 -10 -8 -10 -22 1 -10 8 -43 16 -73 17 l-56 2 -276 276 c-151
151 -272 278 -268 282 3 4 13 1 22 -6 8 -7 15 -10 15 -6 0 3 -15 15 -32 26
-18 11 -26 20 -19 20 8 0 28 12 43 27 l28 27 88 -87 88 -87 102 6 102 7 38
-41 c65 -70 156 -66 202 10 24 40 27 73 5 64 -11 -4 -15 1 -15 19 0 14 5 25
10 25 15 0 12 26 -4 39 -10 9 -15 9 -18 1 -2 -8 -13 -6 -33 4 -37 19 -62 20
-95 1 -33 -19 -44 -19 -36 1 8 21 -11 8 -25 -18 -8 -15 -8 -19 0 -14 6 4 11 1
11 -7 0 -22 -23 -27 -129 -27 l-98 0 -66 67 c-45 46 -62 70 -54 75 8 6 5 10
-10 14 -13 4 -23 10 -23 15 0 5 6 6 13 3 7 -2 43 26 80 64 49 51 70 81 78 114
l12 45 42 -5 c71 -8 142 44 164 120 14 46 10 56 -13 33 -15 -15 -16 -15 -16 3
0 11 7 23 16 26 21 8 9 25 -14 20 -10 -3 -29 7 -47 26 -25 26 -27 33 -15 40
12 8 11 11 -7 16 -13 4 -23 14 -22 23 0 10 2 11 6 4 10 -26 33 -10 144 105
115 120 180 211 183 257 0 14 4 25 9 25 4 0 7 5 7 11 0 8 -5 7 -15 -1 -9 -7
-14 -19 -11 -26 3 -7 -3 -18 -12 -26 -13 -11 -14 -11 -7 1 6 10 4 12 -4 7 -7
-5 -10 -15 -7 -23 5 -11 2 -13 -10 -9 -13 5 -14 4 -6 -7 15 -17 5 -28 -16 -19
-15 5 -16 4 -2 -14 14 -18 14 -18 -6 -1 -11 9 -21 24 -21 32 0 8 2 13 5 10 7
-7 42 14 42 26 0 6 -5 7 -11 3 -7 -4 -10 -1 -7 7 3 8 14 13 24 11 15 -2 16 -1
4 7 -9 6 -14 24 -13 48 2 33 1 34 -6 12 -14 -44 -43 -103 -68 -136 -20 -27
-22 -36 -12 -54 6 -12 7 -19 1 -15 -13 8 -46 -30 -37 -43 3 -6 0 -9 -7 -6 -7
3 -48 -30 -93 -75 -48 -48 -88 -80 -100 -80 -27 0 -110 84 -102 103 3 9 -2 17
-14 20 -23 6 -25 33 -3 41 14 5 15 4 5 -8 -9 -11 -9 -15 1 -18 7 -3 61 45 121
105 110 111 158 183 156 237 -1 19 -3 15 -10 -13 -12 -50 -28 -79 -40 -72 -5
4 -9 -3 -9 -14 0 -11 -4 -22 -9 -25 -5 -4 -7 4 -5 16 4 21 4 21 -4 3 -5 -11
-7 -26 -5 -33 4 -8 0 -10 -11 -6 -9 3 -14 10 -11 15 11 16 -40 -1 -52 -18 -7
-10 -16 -21 -20 -25 -57 -51 -72 -66 -66 -71 3 -4 0 -7 -9 -7 -17 0 -51 -33
-43 -43 3 -4 2 -5 -1 -2 -12 8 -45 -16 -38 -27 4 -7 3 -8 -5 -4 -6 4 -9 12 -6
17 4 5 0 9 -7 9 -8 0 -31 18 -53 39 -22 22 -44 37 -48 34 -5 -3 -11 3 -13 13
-3 11 -17 28 -31 38 -15 11 -24 15 -20 10 3 -6 2 -16 -4 -24 -6 -11 -9 -9 -9
11 0 30 -24 57 -35 39 -3 -5 -2 -10 3 -10 6 0 13 -7 16 -16 9 -24 -88 60 -104
90 -7 14 -16 26 -20 26 -13 0 -68 59 -62 66 4 4 2 5 -3 1 -6 -3 -69 53 -140
124 -71 71 -133 129 -137 129 -5 0 -20 -11 -33 -25z m3 -219 c15 -8 188 -176
384 -373 340 -341 357 -360 364 -403 l8 -45 12 40 12 40 1 -37 c1 -43 -7 -68
-23 -68 -17 -1 -57 -68 -43 -73 16 -6 -670 -693 -712 -713 -41 -20 -121 -20
-158 0 -39 20 -731 716 -713 716 8 0 166 -150 350 -332 l335 -333 -341 345
c-188 190 -347 355 -353 367 -12 24 -14 98 -3 126 10 24 722 737 747 747 32
14 104 11 133 -4z m919 -196 l-14 -21 -6 23 c-7 24 12 43 27 28 5 -5 2 -17 -7
-30z m-638 -21 c1 9 10 5 25 -12 13 -14 26 -23 29 -21 3 3 8 1 12 -5 4 -7 -3
-10 -19 -9 -13 1 -24 5 -23 8 1 3 -1 5 -4 5 -14 0 -39 29 -38 44 0 12 2 11 9
-4 5 -11 9 -14 9 -6z m597 -11 c-9 -5 -14 -13 -11 -19 7 -11 3 -11 -19 -3 -9
3 -16 10 -16 15 0 4 7 5 17 2 12 -5 14 -3 8 7 -5 9 -4 11 4 6 6 -4 14 0 18 10
5 13 8 14 11 5 3 -8 -3 -18 -12 -23z m-1299 -13 c4 -4 2 -5 -4 -1 -8 5 -13 1
-13 -10 0 -10 -3 -14 -7 -11 -3 4 -14 0 -24 -9 -13 -12 -19 -12 -25 -3 -5 8
-3 10 6 4 10 -6 12 -4 7 7 -3 10 0 15 11 14 9 0 16 4 15 11 -3 13 22 12 34 -2z
m983 6 c0 -6 -5 -13 -12 -17 -6 -4 -8 -3 -4 4 3 5 0 13 -6 15 -8 3 -6 6 5 6 9
1 17 -3 17 -8z m608 -46 c-3 -3 -9 2 -12 12 -6 14 -5 15 5 6 7 -7 10 -15 7
-18z m-23 6 c3 -5 2 -12 -3 -15 -5 -3 -9 1 -9 9 0 17 3 19 12 6z m-1645 -35
c0 -3 -14 -11 -30 -20 -17 -8 -28 -10 -24 -5 3 6 16 14 28 19 26 11 26 11 26
6z m1480 -381 c0 -8 -4 -15 -10 -15 -5 0 -7 7 -4 15 4 8 8 15 10 15 2 0 4 -7
4 -15z m-1883 -151 c-14 -15 -27 11 -26 54 l0 47 16 -48 c9 -26 13 -50 10 -53z
m2053 -389 c7 -8 10 -24 7 -35 -3 -11 -1 -20 4 -20 17 0 9 -19 -12 -25 -34
-11 -71 3 -64 24 3 12 0 21 -10 25 -8 3 -15 10 -15 15 0 6 6 8 13 5 8 -3 20 2
27 11 16 19 34 19 50 0z m40 -25 c0 -5 -4 -10 -10 -10 -5 0 -10 5 -10 10 0 6
5 10 10 10 6 0 10 -4 10 -10z m-1760 -55 c24 -24 48 -42 54 -39 6 3 2 -2 -9
-11 -11 -9 -19 -22 -18 -29 3 -14 -218 -236 -236 -236 -16 0 -107 87 -99 95 3
3 23 -8 44 -26 l39 -33 -40 42 -39 42 119 120 c66 66 124 120 130 120 6 0 31
-20 55 -45z m990 -5 c0 -5 -2 -10 -4 -10 -3 0 -8 5 -11 10 -3 6 -1 10 4 10 6
0 11 -4 11 -10z m-1309 -301 c104 -105 189 -198 189 -205 0 -8 5 -14 10 -14 6
0 10 -7 10 -16 0 -8 -4 -13 -9 -10 -9 6 -26 -22 -22 -38 4 -19 -24 -36 -60
-36 -27 0 -48 8 -71 28 -68 57 -63 56 -100 24 -48 -42 -71 -52 -123 -52 -49 0
-105 25 -105 47 0 16 12 17 30 1 8 -7 4 -1 -9 14 -30 34 -39 104 -18 144 8 16
31 44 51 63 l36 35 -50 52 c-59 63 -66 100 -24 133 53 41 63 35 265 -170z
m-301 110 c0 -5 -7 -9 -15 -9 -9 0 -15 9 -15 21 0 18 2 19 15 9 8 -7 15 -16
15 -21z m1720 -109 c0 -53 -4 -90 -10 -90 -11 0 -14 138 -4 164 11 30 14 16
14 -74z m-1665 12 c-7 -7 -45 29 -45 41 0 6 11 0 25 -13 14 -13 23 -26 20 -28z
m460 -130 c-6 -7 -35 18 -35 31 0 5 9 2 20 -8 11 -10 18 -20 15 -23z m-518
-75 c-6 -19 -22 -6 -25 20 -2 27 -2 27 13 8 8 -10 14 -23 12 -28z m1759 5 c6
-4 14 -24 17 -44 4 -27 2 -38 -10 -42 -25 -10 -50 -7 -63 9 -10 12 -10 15 1
15 8 0 4 9 -11 21 -14 12 -18 19 -9 16 8 -3 21 3 27 14 13 20 29 24 48 11z
m-116 -23 c0 -11 -4 -17 -10 -14 -5 3 -10 13 -10 21 0 8 5 14 10 14 6 0 10 -9
10 -21z m160 -9 c0 -5 -5 -10 -11 -10 -5 0 -7 5 -4 10 3 6 8 10 11 10 2 0 4
-4 4 -10z m576 -8 c7 -4 14 -25 15 -47 4 -40 4 -40 -31 -40 -26 0 -35 4 -35
17 0 10 -9 25 -20 33 -14 11 -15 15 -4 12 8 -3 21 4 27 14 13 20 29 24 48 11z
m44 -32 c0 -5 -5 -10 -11 -10 -5 0 -7 5 -4 10 3 6 8 10 11 10 2 0 4 -4 4 -10z"/>
<path d="M1420 2166 c0 -17 33 -46 51 -46 21 0 39 20 39 43 0 15 -3 17 -13 8
-9 -7 -24 -8 -45 -1 -24 6 -32 5 -32 -4z m68 -21 c3 -3 -4 -4 -16 -2 -12 2
-24 6 -28 10 -4 3 4 4 16 2 12 -2 25 -7 28 -10z"/>
<path d="M1350 1965 c-79 -21 -206 -88 -202 -106 2 -7 0 -11 -4 -7 -4 4 -21
-3 -38 -15 -17 -12 -39 -26 -49 -32 -11 -5 -35 -35 -54 -66 -38 -62 -49 -129
-46 -284 1 -79 1 -80 -12 -40 l-13 40 -1 -36 c-1 -52 35 -164 76 -231 104
-173 311 -283 497 -263 136 14 232 55 321 137 103 93 165 217 178 350 5 52 -7
55 -22 5 -7 -26 -10 -13 -12 68 -4 172 -6 189 -18 220 -18 43 -84 126 -91 114
-4 -6 -23 4 -48 25 -61 50 -110 78 -123 70 -8 -4 -9 -3 -5 5 5 7 -3 13 -24 17
-17 4 -33 11 -36 15 -3 5 -10 9 -15 9 -6 0 -8 -4 -4 -9 3 -5 0 -13 -6 -17 -7
-4 -9 -3 -6 3 13 21 -24 35 -105 39 -53 2 -103 -2 -138 -11z m313 -98 c133
-66 224 -188 252 -341 l13 -71 2 70 3 70 10 -54 c8 -40 7 -74 -2 -125 -11 -65
-31 -112 -31 -76 0 8 -11 -12 -25 -44 -13 -32 -38 -76 -54 -97 -21 -25 -27
-39 -18 -42 22 -8 -75 -89 -151 -125 -66 -32 -85 -36 -176 -40 -85 -3 -111 -1
-165 17 -70 24 -153 74 -190 115 -27 29 -22 47 6 25 10 -8 3 3 -15 24 -17 21
-43 60 -57 87 -14 27 -33 57 -44 67 -10 10 -24 36 -30 58 -12 45 -13 157 -1
195 6 19 8 12 8 -30 0 -30 4 -77 9 -105 9 -49 9 -49 14 42 4 79 10 101 42 165
43 88 116 164 198 208 78 41 118 49 230 47 89 -2 102 -6 172 -40z m304 -509
c-3 -8 -6 -5 -6 6 -1 11 2 17 5 13 3 -3 4 -12 1 -19z m-1000 -10 c-3 -8 -6 -5
-6 6 -1 11 2 17 5 13 3 -3 4 -12 1 -19z"/>
<path d="M1640 1778 c-22 -11 -48 -16 -69 -13 -33 4 -41 -3 -198 -158 -91 -89
-170 -161 -177 -159 -7 1 -19 -5 -26 -13 -10 -12 -10 -18 0 -30 7 -8 19 -15
26 -15 8 0 14 -4 14 -10 0 -5 -6 -10 -14 -10 -21 0 -40 -27 -24 -33 8 -4 7 -6
-4 -6 -24 -1 -22 -13 5 -39 29 -27 35 -27 64 0 l23 22 29 -28 c19 -18 34 -25
43 -20 7 4 -4 -8 -24 -27 l-38 -35 33 -32 33 -32 34 35 c26 27 42 35 69 35 68
0 151 73 151 134 0 9 12 21 28 27 93 36 142 93 142 164 0 22 10 40 35 65 42
41 44 53 8 44 -27 -6 -27 -6 -8 9 27 22 16 21 -44 -3 l-50 -19 -28 25 c-18 16
-24 27 -16 30 7 3 10 11 7 18 -3 7 4 21 16 31 28 25 25 38 -7 32 -26 -5 -26
-4 -9 9 30 21 15 23 -24 2z m9 -71 c1 -5 -3 -5 -9 -2 -5 3 -10 16 -9 28 0 21
1 21 9 2 5 -11 9 -24 9 -28z m-36 -86 c32 -33 57 -65 57 -73 1 -8 6 -6 15 6
15 20 20 10 9 -18 -3 -9 -10 -14 -14 -11 -11 7 -23 -32 -15 -45 10 -16 -59
-44 -90 -36 -31 8 -125 92 -125 113 0 8 5 11 13 7 9 -5 9 -4 -1 7 -10 11 -4
22 35 61 26 26 50 48 54 48 3 0 31 -27 62 -59z m-173 -32 c0 -6 -4 -7 -10 -4
-5 3 -10 11 -10 16 0 6 5 7 10 4 6 -3 10 -11 10 -16z m300 -41 c0 -7 -5 -20
-10 -28 -8 -12 -10 -9 -10 13 0 15 5 27 10 27 6 0 10 -6 10 -12z m-240 -155
c0 -19 18 -16 24 5 2 9 4 4 3 -11 -1 -15 -6 -27 -11 -26 -14 1 -26 -24 -20
-43 7 -22 -24 -38 -71 -38 -31 0 -46 9 -93 54 -59 56 -67 92 -9 40 32 -29 32
-29 -3 9 l-34 37 49 50 49 50 58 -57 c32 -32 58 -63 58 -70z m-225 38 c3 -5 1
-12 -5 -16 -5 -3 -10 1 -10 9 0 18 6 21 15 7z"/>
<path d="M2002 1490 c0 -14 2 -19 5 -12 2 6 2 18 0 25 -3 6 -5 1 -5 -13z"/>
<path d="M780 1489 c0 -7 -10 -9 -25 -7 -13 3 -22 2 -20 -3 3 -4 0 -9 -6 -11
-9 -3 -9 -9 0 -26 20 -38 81 -23 81 20 0 11 -5 15 -15 12 -11 -5 -13 -2 -9 10
3 9 3 16 0 16 -3 0 -6 -5 -6 -11z"/>
<path d="M2136 1492 c-4 -7 -4 -12 1 -12 4 0 2 -4 -4 -8 -19 -12 13 -52 42
-52 25 0 48 41 27 48 -6 2 -10 9 -8 15 1 7 1 9 -1 5 -7 -13 -41 -9 -45 4 -3 9
-6 9 -12 0z"/>
<path d="M1426 775 c-14 -37 38 -71 69 -45 17 14 20 40 4 40 -5 0 -7 5 -3 11
4 7 -1 7 -15 -1 -16 -8 -26 -8 -35 0 -10 8 -15 7 -20 -5z"/>
<path d="M1624 738 l-19 -23 23 19 c21 18 27 26 19 26 -2 0 -12 -10 -23 -22z"/>
<path d="M484 492 c-10 -14 -14 -15 -27 -3 -14 11 -18 11 -23 -3 -9 -25 2 -45
31 -52 43 -11 75 37 42 64 -9 8 -16 6 -23 -6z"/>
<path d="M658 427 c19 -26 72 -73 72 -65 0 2 -21 24 -47 48 -27 26 -37 33 -25
17z"/>
<path d="M2215 2496 c-34 -15 -235 -199 -255 -234 -11 -18 -11 -25 -1 -35 10
-9 11 -9 6 4 -9 25 209 232 261 247 119 35 227 -22 261 -138 17 -57 30 -54 19
4 -9 49 -59 112 -108 137 -51 26 -142 34 -183 15z"/>
<path d="M1712 2429 c2 -6 8 -10 13 -10 5 0 11 4 13 10 2 6 -4 11 -13 11 -9 0
-15 -5 -13 -11z"/>
<path d="M1420 2419 c0 -8 7 -24 15 -35 19 -25 19 -14 0 22 -8 16 -15 22 -15
13z"/>
<path d="M1483 2364 c-13 -28 -13 -28 47 -38 l34 -6 -34 35 c-19 19 -34 35
-34 35 -1 0 -6 -12 -13 -26z"/>
<path d="M971 2335 c-1 -24 161 -193 168 -174 2 6 -4 16 -13 21 -9 5 -14 13
-11 19 4 5 -2 6 -11 2 -12 -4 -15 -3 -10 5 4 7 3 12 -3 12 -16 0 -62 50 -56
61 4 5 -2 6 -11 2 -12 -4 -15 -3 -10 5 4 7 2 12 -4 12 -6 0 -8 4 -5 10 3 5 0
7 -9 4 -9 -4 -16 2 -19 18 -4 19 -4 20 -6 3z"/>
<path d="M830 2266 c0 -2 8 -10 18 -17 15 -13 16 -12 3 4 -13 16 -21 21 -21
13z"/>
<path d="M1893 2262 c-8 -5 -8 -12 2 -25 12 -16 13 -16 17 8 5 26 1 30 -19 17z"/>
<path d="M2491 2245 c0 -11 -10 -34 -20 -52 -18 -29 -19 -33 -3 -45 9 -8 13
-8 9 -1 -4 6 -1 14 5 16 10 4 9 6 -1 6 -11 1 -10 5 3 20 11 12 16 30 13 48 -2
17 -5 20 -6 8z"/>
<path d="M2817 2225 c-4 -8 -2 -17 3 -20 6 -4 10 3 10 14 0 25 -6 27 -13 6z"/>
<path d="M867 2219 c7 -7 15 -10 18 -7 3 3 -2 9 -12 12 -14 6 -15 5 -6 -5z"/>
<path d="M1220 2180 c0 -5 5 -10 11 -10 5 0 7 5 4 10 -3 6 -8 10 -11 10 -2 0
-4 -4 -4 -10z"/>
<path d="M516 2165 c4 -8 11 -15 16 -15 6 0 5 6 -2 15 -7 8 -14 15 -16 15 -2
0 -1 -7 2 -15z"/>
<path d="M2753 2151 c-10 -15 -9 -20 2 -25 9 -3 12 0 8 10 -3 7 0 14 6 14 6 0
11 5 11 10 0 16 -14 11 -27 -9z"/>
<path d="M1971 2151 c-15 -10 -8 -26 18 -40 13 -7 18 -6 18 4 0 8 -7 17 -14
19 -8 3 -11 10 -8 16 8 12 4 12 -14 1z"/>
<path d="M320 2140 c0 -5 5 -10 10 -10 6 0 10 5 10 10 0 6 -4 10 -10 10 -5 0
-10 -4 -10 -10z"/>
<path d="M357 2143 c-10 -9 -9 -23 1 -23 5 0 9 7 9 15 0 17 -1 18 -10 8z"/>
<path d="M476 2128 c3 -5 10 -6 15 -3 13 9 11 12 -6 12 -8 0 -12 -4 -9 -9z"/>
<path d="M509 2124 c-1 -5 -2 -13 -4 -19 -1 -5 -3 -21 -3 -34 -2 -24 -2 -24
-17 -5 -13 17 -14 17 -15 2 0 -10 5 -18 11 -18 5 0 7 -6 4 -12 -4 -7 3 -3 14
10 11 13 28 22 37 20 9 -2 19 3 22 11 2 8 1 11 -4 8 -9 -5 -29 12 -31 26 -2
13 -13 22 -14 11z"/>
<path d="M570 2089 c0 -5 5 -7 10 -4 6 3 10 8 10 11 0 2 -4 4 -10 4 -5 0 -10
-5 -10 -11z"/>
<path d="M653 2093 c15 -2 37 -2 50 0 12 2 0 4 -28 4 -27 0 -38 -2 -22 -4z"/>
<path d="M2265 890 c10 -11 20 -20 23 -20 3 0 -3 9 -13 20 -10 11 -20 20 -23
20 -3 0 3 -9 13 -20z"/>
<path d="M545 870 c10 -11 20 -20 23 -20 3 0 -3 9 -13 20 -10 11 -20 20 -23
20 -3 0 3 -9 13 -20z"/>
<path d="M2415 740 c10 -11 20 -20 23 -20 3 0 -3 9 -13 20 -10 11 -20 20 -23
20 -3 0 3 -9 13 -20z"/>
<path d="M2123 670 c0 -47 2 -66 4 -42 2 23 2 61 0 85 -2 23 -4 4 -4 -43z"/>
<path d="M2565 590 c10 -11 20 -20 23 -20 3 0 -3 9 -13 20 -10 11 -20 20 -23
20 -3 0 3 -9 13 -20z"/>
</g>
</svg>
